<?xml version="1.0" encoding="utf-8"?>
<!-- Generator: Adobe Illustrator 14.0.0, SVG Export Plug-In . SVG Version: 6.00 Build 43363)  -->
<!DOCTYPE svg PUBLIC "-//W3C//DTD SVG 1.1//EN" "http://www.w3.org/Graphics/SVG/1.1/DTD/svg11.dtd">
<svg version="1.1" id="Layer_1" xmlns="http://www.w3.org/2000/svg" xmlns:xlink="http://www.w3.org/1999/xlink" x="0px" y="0px"
	 width="595.28px" height="841.89px" viewBox="0 0 595.28 841.89" enable-background="new 0 0 595.28 841.89" xml:space="preserve">
<g>
	<text transform="matrix(1 0 0 1 351.6577 398.4214)" font-family="'Helvetica'" font-size="10">O</text>
	<polygon points="356.05,389.127 355.05,389.127 355.05,365.027 355.55,364.727 356.05,365.027 	"/>
	<polygon points="379.451,407.927 378.951,408.827 377.601,408.227 378.25,407.077 	"/>
	<polygon points="377.101,406.227 376.25,407.677 374.951,407.077 375.951,405.327 	"/>
	<polygon points="374.75,404.477 373.601,406.527 372.25,405.927 373.601,403.627 	"/>
	<polygon points="372.451,402.777 370.951,405.377 369.601,404.777 371.25,401.877 	"/>
	<polygon points="370.101,401.027 368.3,404.177 366.951,403.627 368.951,400.177 	"/>
	<polygon points="367.8,399.277 365.601,403.027 364.3,402.477 366.601,398.427 	"/>
	<polygon points="365.451,397.577 362.951,401.877 361.601,401.327 364.3,396.677 	"/>
	<polygon points="363.101,395.827 360.3,400.727 358.951,400.177 361.951,394.977 	"/>
	<polygon points="407,394.427 407.5,394.727 407.451,395.327 382,410.027 381,409.427 	"/>
	<polygon points="407,365.027 408,364.427 408,394.427 407.5,394.727 407,394.427 	"/>
	<polygon points="381.5,350.327 381.5,349.127 408,364.427 407,365.027 	"/>
	<polygon points="356.05,365.027 355.55,364.727 356.15,363.827 381.5,349.127 381.5,350.327 	"/>
	<polygon points="329.55,350.327 329.55,349.127 354.951,363.827 355.55,364.727 355.05,365.027 	"/>
	<polygon points="304.15,364.977 303.601,364.677 303.601,364.127 329.55,349.127 329.55,350.327 	"/>
	<polygon points="277.4,350.177 277.9,349.277 303.601,364.127 303.601,364.677 303.101,364.977 	"/>
	<text transform="matrix(1 0 0 1 299.7046 398.3276)" font-family="'Helvetica'" font-size="10">OH</text>
	<polygon points="306.601,389.027 300.601,389.027 303.101,364.977 303.601,364.677 304.15,364.977 	"/>
	<text transform="matrix(1 0 0 1 351.6577 338.4761)" font-family="'Helvetica'" font-size="10">OH</text>
	<polygon points="352.55,340.677 358.55,340.677 356.15,363.827 355.55,364.727 354.951,363.827 	"/>
	<text transform="matrix(1 0 0 1 429.8999 413.4214)" font-family="'Helvetica'" font-size="10">COO</text>
	<text transform="matrix(1 0 0 1 452.6733 409.6714)" font-family="'Helvetica'" font-size="7.5">-</text>
	<polygon points="430.351,404.477 427.351,409.677 407.451,395.327 407.5,394.727 408,394.427 	"/>
	<polygon points="382,439.976 381,439.376 381,409.427 382,410.027 	"/>
	<polygon points="356.101,454.927 355.601,454.626 355.601,454.078 381,439.376 382,439.976 	"/>
	<polygon points="329.65,440.277 329.65,439.078 355.601,454.078 355.601,454.626 355.05,454.927 	"/>
	<polygon points="303.701,455.226 303.701,454.078 329.65,439.078 329.65,440.277 	"/>
	<polygon points="305.75,458.177 305.25,457.328 329.4,443.376 329.9,444.277 	"/>
	<polygon points="277.75,440.277 277.75,439.078 303.701,454.078 303.701,455.226 	"/>
	<polygon points="251.85,455.226 251.85,454.078 277.75,439.078 277.75,440.277 	"/>
	<polygon points="253.9,458.177 253.4,457.328 277.5,443.376 278,444.277 	"/>
	<polygon points="225.9,440.277 225.9,439.078 251.85,454.078 251.85,455.226 	"/>
	<polygon points="199.95,455.226 199.95,454.078 225.9,439.078 225.9,440.277 	"/>
	<polygon points="202,458.177 201.5,457.328 225.65,443.376 226.15,444.277 	"/>
	<polygon points="173.75,440.126 174.25,439.226 199.95,454.078 199.95,455.226 	"/>
	<path fill="none" stroke="#000000" d="M172.5,438.726c0,0-59,12.102-59-43c0-41,18-46,39-46c56,0,3,0,125.15,0"/>
	<text transform="matrix(1 0 0 1 429.5562 353.4214)" font-family="'Helvetica'" font-size="10">OH</text>
	<polygon points="426.951,350.027 429.951,355.227 428.601,355.827 425.8,350.877 	"/>
	<polygon points="424.601,351.777 427.3,356.377 425.951,356.927 423.451,352.627 	"/>
	<polygon points="422.3,353.477 424.65,357.527 423.3,358.077 421.15,354.327 	"/>
	<polygon points="420,355.177 422,358.677 420.65,359.227 418.851,356.077 	"/>
	<polygon points="417.701,356.927 419.351,359.827 418.05,360.377 416.55,357.777 	"/>
	<polygon points="415.351,358.627 416.701,360.927 415.4,361.527 414.201,359.477 	"/>
	<polygon points="413.05,360.377 414.05,362.077 412.75,362.677 411.9,361.227 	"/>
	<polygon points="410.75,362.077 411.4,363.227 410.101,363.827 409.601,362.927 	"/>
	<text transform="matrix(1 0 0 1 352.0483 489.3198)" font-family="'Helvetica'" font-size="10">O</text>
	<text transform="matrix(1 0 0 1 400.8452 508.0229)" font-family="'Helvetica'" font-size="10">O</text>
	<text transform="matrix(1 0 0 1 466.5015 500.5229)" font-family="'Helvetica'" font-size="10">OH</text>
	<text transform="matrix(1 0 0 1 423.1499 468.6714)" font-family="'Helvetica'" font-size="10">NH</text>
	<text transform="matrix(1 0 0 1 437.5874 470.5464)" font-family="'Helvetica'" font-size="7.5">3</text>
	<text transform="matrix(1 0 0 1 387.4468 469.3276)" font-family="'Helvetica'" font-size="10">OH</text>
	<polygon points="398.75,501.376 399.851,507.277 383.8,507.726 384,507.226 384.701,506.427 	"/>
	<polygon points="390.851,481.277 391.351,481.328 391.65,481.976 384.701,506.427 384,507.226 383.701,506.376 	"/>
	<polygon points="390.851,471.527 391.851,471.527 391.851,480.976 391.351,481.328 390.851,481.328 	"/>
	<polygon points="391.65,481.976 391.351,481.328 391.851,480.976 419.601,489.927 419.951,490.578 419.9,491.078 	"/>
	<polygon points="424.701,470.927 425.65,471.177 420.601,489.927 419.951,490.578 419.601,489.927 	"/>
	<polygon points="432.15,509.476 434.351,512.126 431.451,513.427 409.601,507.677 410.601,503.828 	"/>
	<polygon points="419.9,491.078 419.951,490.578 420.601,489.927 441.701,485.777 441.701,486.277 440.9,486.927 	"/>
	<polygon points="454.851,505.976 455.101,506.976 431.451,513.427 434.351,512.126 437.65,510.726 	"/>
	<polygon points="465.351,494.427 465,495.376 442.05,486.927 441.701,486.277 441.701,485.777 	"/>
	<polygon points="440.9,486.927 441.701,486.277 442.05,486.927 437.65,510.726 434.351,512.126 432.15,509.476 	"/>
	<polygon points="383.701,506.376 384,507.226 383.8,507.726 360.201,489.527 360.851,488.726 	"/>
	<polygon points="358.951,479.976 352.951,480.078 355.05,454.927 355.601,454.626 356.101,454.927 	"/>
	<path fill="none" stroke="#000000" stroke-width="0.8" d="M431.791,455.726c0,2.457-1.994,4.451-4.451,4.451
		c-2.455,0-4.449-1.994-4.449-4.451c0-2.455,1.994-4.449,4.449-4.449C429.796,451.277,431.791,453.271,431.791,455.726
		L431.791,455.726z M425.201,455.828h4.449 M427.451,453.626v4.4"/>
	<text transform="matrix(1 0 0 1 299.8999 358.7261)" font-family="'Helvetica'" font-size="12">1</text>
	<text transform="matrix(1 0 0 1 343.8921 371.7261)" font-family="'Helvetica'" font-size="12">3</text>
	<text transform="matrix(1 0 0 1 394.8999 374.7261)" font-family="'Helvetica'" font-size="12">5</text>
	<text transform="matrix(1 0 0 1 378.8921 403.7261)" font-family="'Helvetica'" font-size="12">7</text>
	<text transform="matrix(1 0 0 1 351.8999 447.7183)" font-family="'Helvetica'" font-size="12">9</text>
</g>
</svg>
